REM DIRINDEX 1\3,1\4,1\5,1\6,1\2\7,1\2\8,1\2\9,1\2\10,1\2\11
REM DIRNAME folder01,folder02,folder03,folder04,folder05,folder06,folder07,folder08,folder09,folder10,folder11
TITLE ""
FILE "DISC5Track36.mp3" MP3
  TRACK 01 AUDIO
    TITLE "0:"
    INDEX 01 00:00:00
  TRACK 02 AUDIO
    TITLE "3:cjc021_5782"
    INDEX 01 00:00:23
  TRACK 03 AUDIO
    TITLE "0:"
    INDEX 01 00:01:28
  TRACK 04 AUDIO
    TITLE "4:cjc021_5783"
    INDEX 01 00:03:02
  TRACK 05 AUDIO
    TITLE "0:"
    INDEX 01 00:04:09
  TRACK 06 AUDIO
    TITLE "5:cjc021_5784"
    INDEX 01 00:04:42
  TRACK 07 AUDIO
    TITLE "0:"
    INDEX 01 00:07:03
  TRACK 08 AUDIO
    TITLE "3:cjc021_5785"
    INDEX 01 00:08:36
  TRACK 09 AUDIO
    TITLE "0:"
    INDEX 01 00:09:42
  TRACK 10 AUDIO
    TITLE "4:cjc021_5786"
    INDEX 01 00:11:15
  TRACK 11 AUDIO
    TITLE "0:"
    INDEX 01 00:12:22
  TRACK 12 AUDIO
    TITLE "5:cjc021_5787"
    INDEX 01 00:12:56
  TRACK 13 AUDIO
    TITLE "0:"
    INDEX 01 00:15:23
  TRACK 14 AUDIO
    TITLE "3:cjc021_5788"
    INDEX 01 00:16:59
  TRACK 15 AUDIO
    TITLE "0:"
    INDEX 01 00:18:03
  TRACK 16 AUDIO
    TITLE "4:cjc021_5789"
    INDEX 01 00:19:54
  TRACK 17 AUDIO
    TITLE "0:"
    INDEX 01 00:20:71
  TRACK 18 AUDIO
    TITLE "5:cjc021_5790"
    INDEX 01 00:21:33
  TRACK 19 AUDIO
    TITLE "0:"
    INDEX 01 00:24:53
  TRACK 20 AUDIO
    TITLE "3:cjc021_5791"
    INDEX 01 00:26:18
  TRACK 21 AUDIO
    TITLE "0:"
    INDEX 01 00:27:26
  TRACK 22 AUDIO
    TITLE "4:cjc021_5792"
    INDEX 01 00:29:01
  TRACK 23 AUDIO
    TITLE "0:"
    INDEX 01 00:30:10
  TRACK 24 AUDIO
    TITLE "5:cjc021_5793"
    INDEX 01 00:30:46
  TRACK 25 AUDIO
    TITLE "0:"
    INDEX 01 00:33:26
  TRACK 26 AUDIO
    TITLE "3:cjc021_5794"
    INDEX 01 00:34:63
  TRACK 27 AUDIO
    TITLE "0:"
    INDEX 01 00:36:17
  TRACK 28 AUDIO
    TITLE "4:cjc021_5795"
    INDEX 01 00:37:67
  TRACK 29 AUDIO
    TITLE "0:"
    INDEX 01 00:39:21
  TRACK 30 AUDIO
    TITLE "5:cjc021_5796"
    INDEX 01 00:39:58
  TRACK 31 AUDIO
    TITLE "0:"
    INDEX 01 00:42:33
  TRACK 32 AUDIO
    TITLE "3:cjc021_5797"
    INDEX 01 00:43:70
  TRACK 33 AUDIO
    TITLE "0:"
    INDEX 01 00:44:69
  TRACK 34 AUDIO
    TITLE "4:cjc021_5798"
    INDEX 01 00:46:45
  TRACK 35 AUDIO
    TITLE "0:"
    INDEX 01 00:47:44
  TRACK 36 AUDIO
    TITLE "5:cjc021_5799"
    INDEX 01 00:48:06
  TRACK 37 AUDIO
    TITLE "0:"
    INDEX 01 00:51:03
  TRACK 38 AUDIO
    TITLE "3:cjc021_5800"
    INDEX 01 00:52:39
  TRACK 39 AUDIO
    TITLE "0:"
    INDEX 01 00:53:53
  TRACK 40 AUDIO
    TITLE "4:cjc021_5801"
    INDEX 01 00:55:30
  TRACK 41 AUDIO
    TITLE "0:"
    INDEX 01 00:56:45
  TRACK 42 AUDIO
    TITLE "5:cjc021_5802"
    INDEX 01 00:57:09
  TRACK 43 AUDIO
    TITLE "0:"
    INDEX 01 00:59:41
  TRACK 44 AUDIO
    TITLE "3:cjc021_5803"
    INDEX 01 01:00:74
  TRACK 45 AUDIO
    TITLE "0:"
    INDEX 01 01:02:08
  TRACK 46 AUDIO
    TITLE "4:cjc021_5804"
    INDEX 01 01:03:57
  TRACK 47 AUDIO
    TITLE "0:"
    INDEX 01 01:04:66
  TRACK 48 AUDIO
    TITLE "5:cjc021_5805"
    INDEX 01 01:05:24
  TRACK 49 AUDIO
    TITLE "0:"
    INDEX 01 01:08:33
  TRACK 50 AUDIO
    TITLE "3:cjc021_5806"
    INDEX 01 01:09:71
  TRACK 51 AUDIO
    TITLE "0:"
    INDEX 01 01:11:03
  TRACK 52 AUDIO
    TITLE "4:cjc021_5807"
    INDEX 01 01:12:54
  TRACK 53 AUDIO
    TITLE "0:"
    INDEX 01 01:13:61
  TRACK 54 AUDIO
    TITLE "5:cjc021_5808"
    INDEX 01 01:14:21
  TRACK 55 AUDIO
    TITLE "0:"
    INDEX 01 01:16:54
  TRACK 56 AUDIO
    TITLE "3:cjc021_5809"
    INDEX 01 01:18:13
  TRACK 57 AUDIO
    TITLE "0:"
    INDEX 01 01:19:21
  TRACK 58 AUDIO
    TITLE "4:cjc021_5810"
    INDEX 01 01:20:71
  TRACK 59 AUDIO
    TITLE "0:"
    INDEX 01 01:22:03
  TRACK 60 AUDIO
    TITLE "5:cjc021_5811"
    INDEX 01 01:22:37
  TRACK 61 AUDIO
    TITLE "0:"
    INDEX 01 01:24:51
